<!-- Generator: Adobe Illustrator 19.2.0, SVG Export Plug-In  -->
<svg version="1.1"
	 xmlns="http://www.w3.org/2000/svg" xmlns:xlink="http://www.w3.org/1999/xlink" xmlns:a="http://ns.adobe.com/AdobeSVGViewerExtensions/3.0/"
	 x="0px" y="0px" width="62.93px" height="58.996px" viewBox="0 0 62.93 58.996" style="enable-background:new 0 0 62.93 58.996;"
	 xml:space="preserve">
<style type="text/css">
	.st0{fill:#FFFFFF;}
</style>
<defs>
</defs>
<g>
	<path class="st0" d="M15.733,47.196v11.8h31.463v-11.8v-7.865H15.733V47.196z M19.666,43.264h23.598v3.933H19.666V43.264z
		 M19.666,51.13h23.598v3.933H19.666V51.13z"/>
	<polygon class="st0" points="47.196,11.8 47.196,0 15.733,0 15.733,11.8 15.733,19.665 47.196,19.665 	"/>
	<path class="st0" d="M55.063,11.8H51.13v7.865v3.934H11.8v-3.934V11.8H7.867C3.935,11.8,0,15.733,0,19.665v19.666
		c0,3.933,3.935,7.865,7.867,7.865H11.8v-7.865v-3.934h39.33v3.934v7.865h3.934c3.933,0,7.866-3.933,7.866-7.865V19.665
		C62.93,15.733,58.996,11.8,55.063,11.8z"/>
</g>
</svg>